<?xml version="1.0" standalone="no"?>
<!DOCTYPE svg PUBLIC "-//W3C//DTD SVG 20010904//EN"
 "http://www.w3.org/TR/2001/REC-SVG-20010904/DTD/svg10.dtd">
<svg version="1.0" xmlns="http://www.w3.org/2000/svg"
 width="260.000000pt" height="260.000000pt" viewBox="0 0 260.000000 260.000000"
 preserveAspectRatio="xMidYMid meet">
<metadata>
Created by potrace 1.14, written by Peter Selinger 2001-2017
</metadata>
<g transform="translate(0.000000,260.000000) scale(0.100000,-0.100000)"
fill="#000000" stroke="none">
<path d="M1458 1593 c-52 -46 -60 -57 -47 -61 5 -2 30 15 54 37 35 32 52 41
80 41 68 0 104 -68 75 -144 -12 -32 5 -45 20 -16 6 11 29 28 51 36 49 20 50
41 3 60 -20 9 -51 31 -69 50 -28 29 -39 34 -79 34 -39 0 -52 -6 -88 -37z m237
-72 c3 -5 -4 -13 -16 -16 -23 -8 -34 -1 -24 14 8 13 32 14 40 2z"/>
<path d="M1555 1540 c-7 -12 2 -30 16 -30 5 0 9 9 9 20 0 21 -15 27 -25 10z"/>
<path d="M1304 1454 c-32 -26 -92 -69 -132 -96 -57 -38 -72 -54 -70 -71 3 -19
-8 -24 -100 -48 -57 -15 -110 -33 -118 -40 -17 -14 -19 -80 -2 -97 18 -18 29
-16 132 23 l93 35 59 -16 c32 -9 75 -19 94 -23 28 -5 40 -15 59 -49 l23 -43
-23 -25 c-28 -30 -19 -41 15 -19 14 9 30 14 36 10 6 -4 24 -10 40 -15 23 -6
30 -5 30 5 0 7 -12 16 -27 21 l-28 8 33 5 c47 8 35 27 -15 23 -40 -4 -43 -2
-62 36 l-20 40 42 10 c23 6 64 27 92 46 74 53 141 146 105 146 -5 0 -10 -4
-10 -9 0 -23 -109 -126 -155 -148 -63 -29 -115 -29 -211 -1 -74 22 -76 22
-122 5 -124 -48 -147 -55 -159 -50 -16 6 -17 59 -2 69 7 4 55 17 107 30 52 13
100 28 105 33 7 7 21 4 45 -11 28 -17 45 -20 100 -16 85 6 142 35 180 90 44
66 69 158 42 158 -5 0 -10 -8 -10 -17 0 -38 -37 -118 -71 -153 -57 -58 -162
-77 -229 -41 -47 25 -48 41 -1 71 73 47 220 155 221 163 1 18 -31 4 -86 -39z"/>
<path d="M1610 1378 c0 -13 -3 -34 -7 -48 -6 -22 -5 -24 10 -11 18 15 24 81 7
81 -5 0 -10 -10 -10 -22z"/>
</g>
</svg>
